<svg xmlns="http://www.w3.org/2000/svg" viewBox="0 0 57.19 64.2" fill="url(#my-gradient-0-1-2-3)"><path fill="#3fbcb5" d="M12.78 26.56c-.51.8-.91 1.67-1.19 2.6-.14.46-.24.94-.31 1.43s-.11.99-.11 1.5a10.592 10.592 0 0 0 .42 2.93c.28.93.68 1.8 1.19 2.6.51.8 1.13 1.52 1.83 2.15a10.483 10.483 0 0 0 2.35 1.58V22.82a10.355 10.355 0 0 0-4.18 3.73Z"></path><path fill="#fff" d="m36.75 35.27.03-.18c.08-.4.14-.8.19-1.21.01-.12.03-.25.04-.37.04-.47.07-.94.07-1.42s-.03-.95-.07-1.42c-.01-.12-.02-.25-.04-.37-.05-.41-.11-.82-.19-1.22-.01-.06-.02-.12-.03-.17-.09-.45-.21-.89-.34-1.32-.03-.11-.07-.22-.11-.33-.12-.36-.25-.71-.39-1.06-.03-.08-.06-.16-.1-.25-.18-.41-.37-.81-.58-1.2l-.15-.27c-.18-.32-.37-.63-.57-.94l-.17-.26c-.25-.36-.51-.72-.79-1.06-.05-.07-.11-.13-.17-.2-.24-.28-.49-.56-.75-.82l-.24-.24c-.31-.31-.64-.61-.98-.89-.04-.04-.09-.07-.13-.1-.31-.25-.62-.48-.95-.71l-.29-.2c-.75-.49-1.54-.93-2.37-1.29-.12-.05-.25-.1-.37-.15-.31-.13-.64-.24-.96-.35-.13-.04-.25-.09-.38-.12-1.42-.43-2.93-.66-4.49-.66-.48 0-.95.03-1.42.07-.15.01-.29.03-.44.05-.34.04-.67.09-1 .15-.15.03-.29.05-.43.08-.04 0-.08.02-.12.03-.38.08-.75.18-1.12.29v5.65c1.37-.67 2.9-1.06 4.53-1.06 5.7 0 10.32 4.62 10.32 10.32s-4.62 10.32-10.32 10.32c-1.63 0-3.16-.39-4.53-1.06v5.65c.37.11.76.21 1.14.29.03 0 .07.02.1.03.14.03.29.05.43.08.33.06.66.11 1 .15.15.02.29.04.44.05.47.04.94.07 1.42.07.98 0 1.93-.1 2.86-.27.09-.02.19-.02.28-.04.46-.09.91-.21 1.35-.35.13-.04.26-.08.39-.13.32-.11.64-.22.96-.35.12-.05.25-.1.37-.15.83-.36 1.62-.79 2.37-1.29.1-.06.19-.13.29-.2.32-.22.64-.46.95-.71l.13-.1c.34-.28.66-.58.98-.89l.24-.24c.26-.26.51-.54.75-.82l.17-.2c.28-.34.54-.69.79-1.06l.17-.26c.2-.3.39-.62.57-.93l.15-.27c.21-.39.4-.79.58-1.2.03-.08.06-.16.1-.25.14-.35.27-.7.39-1.06.04-.11.07-.22.11-.33.13-.43.25-.87.34-1.32Z"></path><path fill="#1d9999" d="M56.01 28.51a6.002 6.002 0 0 0-8.4-1.23c-.99.74-1.69 1.73-2.07 2.81h-3.3c-1.01-10.58-9.91-18.85-20.75-18.85-3.22 0-6.25.75-8.97 2.05L10.56 9.9c.38-.45.7-.96.95-1.52A6.011 6.011 0 0 0 8.38.49 6.011 6.011 0 0 0 .49 3.62a6.011 6.011 0 0 0 3.13 7.89c1.14.49 2.34.6 3.47.39l2 3.46C3.97 19.16.64 25.23.64 32.1s3.33 12.94 8.45 16.74l-2 3.46c-.58-.11-1.18-.13-1.79-.06A5.991 5.991 0 0 0 .04 58.9a5.987 5.987 0 0 0 6.65 5.26 5.991 5.991 0 0 0 5.26-6.66 5.913 5.913 0 0 0-1.4-3.2l1.96-3.39c2.72 1.3 5.75 2.05 8.97 2.05 10.84 0 19.74-8.27 20.75-18.85h3.3c.2.55.48 1.09.84 1.58 1.98 2.66 5.74 3.21 8.4 1.23s3.21-5.74 1.23-8.4Zm-18.93 3.58c0 .48-.03.95-.07 1.42-.01.12-.02.25-.04.37-.05.41-.11.82-.19 1.21l-.03.18c-.09.45-.21.89-.34 1.32-.03.11-.07.22-.11.33-.12.36-.25.71-.39 1.06-.03.08-.06.17-.1.25-.18.41-.37.81-.58 1.2l-.15.27c-.18.32-.37.63-.57.93l-.17.26c-.25.36-.51.72-.79 1.06-.05.07-.11.13-.17.2-.24.28-.49.56-.75.82l-.24.24c-.31.31-.64.61-.98.89-.04.04-.09.07-.13.1-.31.25-.62.48-.95.71l-.29.2c-.75.49-1.54.93-2.37 1.29-.12.05-.25.1-.37.15-.31.13-.63.24-.96.35-.13.04-.26.09-.39.13-.44.13-.89.25-1.35.35-.09.02-.19.03-.28.04-.93.17-1.88.27-2.86.27-.54 0-1.08-.04-1.6-.09-.08 0-.15-.02-.23-.03-.53-.06-1.04-.15-1.55-.26-.39-.09-.77-.18-1.14-.29-6.4-1.94-11.06-7.88-11.06-14.92s4.66-12.97 11.06-14.92a16.606 16.606 0 0 1 2.69-.56c.07 0 .14-.02.21-.02.53-.06 1.07-.09 1.62-.09.47 0 .94.03 1.4.07.16.01.32.03.48.05a23.232 23.232 0 0 1 1.44.23c.39.09.78.18 1.16.3.13.04.26.08.38.12.32.11.64.22.96.35.12.05.25.1.37.15.83.36 1.62.79 2.37 1.29.1.06.19.13.29.2.32.22.64.46.95.71l.13.1c.34.28.66.58.98.89l.24.24c.26.27.51.54.75.82l.17.2c.28.34.54.69.79 1.06l.17.26c.2.3.39.62.57.94l.15.27c.21.39.4.79.58 1.2.03.08.06.16.1.25.14.35.27.7.39 1.06.04.11.07.22.11.33.13.43.25.87.34 1.32.01.06.02.12.03.17.08.4.14.81.19 1.22.01.12.03.24.04.37.04.47.07.94.07 1.42Z"></path><defs><linearGradient id="my-gradient-0-1-2-3" x2="0%" y2="100%"><stop offset="0" stop-color="#3fbcb5"></stop><stop offset="0.5" stop-color="#105e66"></stop><stop offset="1" stop-color="#072323"></stop></linearGradient></defs></svg>